HIERARCHY
ROOT hip
{
	OFFSET 0.000000 0.000000 0.000000 
	CHANNELS 6 Xposition Yposition Zposition Xrotation Zrotation Yrotation
	JOINT abdomen
	{
		OFFSET 0.000000 3.402643 0.000000 
		CHANNELS 3 Xrotation Zrotation Yrotation
		JOINT chest
		{
			OFFSET 0.000000 8.438565 -0.680529 
			CHANNELS 3 Xrotation Zrotation Yrotation
			JOINT neck
			{
				OFFSET 0.000000 10.207942 -0.272212 
				CHANNELS 3 Xrotation Zrotation Yrotation
				JOINT head
				{
					OFFSET 0.000000 3.130431 0.000000 
					CHANNELS 3 Xrotation Zrotation Yrotation
					End Site
					{
						OFFSET 0.000000 3.130435 0.000000 
					}
				}
			}
			JOINT lCollar
			{
				OFFSET 3.470700 6.669187 -0.816635 
				CHANNELS 3 Yrotation Zrotation Xrotation
				JOINT lShldr
				{
					OFFSET 3.198488 0.000000 0.000000 
					CHANNELS 3 Zrotation Yrotation Xrotation
					JOINT lForeArm
					{
						OFFSET 10.139888 0.000000 0.000000 
						CHANNELS 3 Yrotation Zrotation Xrotation
						JOINT lHand
						{
							OFFSET 8.370511 0.000000 0.000000 
							CHANNELS 3 Zrotation Yrotation Xrotation
							End Site
							{
								OFFSET 4.083176 0.000000 0.000000 
							}
						}
					}
				}
			}
			JOINT rCollar
			{
				OFFSET -3.470700 6.669187 -0.816635 
				CHANNELS 3 Yrotation Zrotation Xrotation
				JOINT rShldr
				{
					OFFSET -3.198488 0.000000 0.000000 
					CHANNELS 3 Zrotation Yrotation Xrotation
					JOINT rForeArm
					{
						OFFSET -10.139888 0.000000 0.000000 
						CHANNELS 3 Yrotation Zrotation Xrotation
						JOINT rHand
						{
							OFFSET -8.370511 0.000000 0.000000 
							CHANNELS 3 Zrotation Yrotation Xrotation
							End Site
							{
								OFFSET -4.083176 0.000000 0.000000 
							}
						}
					}
				}
			}
		}
	}
	JOINT lThigh
	{
		OFFSET 5.308129 -1.633274 1.361059 
		CHANNELS 3 Xrotation Zrotation Yrotation
		JOINT lShin
		{
			OFFSET -2.041588 -20.007561 0.000000 
			CHANNELS 3 Xrotation Zrotation Yrotation
			JOINT lFoot
			{
				OFFSET 0.000000 -19.190928 -1.224953 
				CHANNELS 3 Xrotation Yrotation Zrotation
				End Site
				{
					OFFSET 0.000000 -2.449906 4.627600 
				}
			}
		}
	}
	JOINT rThigh
	{
		OFFSET -5.308129 -1.633274 1.361059 
		CHANNELS 3 Xrotation Zrotation Yrotation
		JOINT rShin
		{
			OFFSET 2.041588 -20.007561 0.000000 
			CHANNELS 3 Xrotation Zrotation Yrotation
			JOINT rFoot
			{
				OFFSET 0.000000 -19.190928 -1.224953 
				CHANNELS 3 Xrotation Yrotation Zrotation
				End Site
				{
					OFFSET 0.000000 -2.449906 4.627600 
				}
			}
		}
	}
}
MOTION
Frames: 10
Frame Time: 0.011111
11.795401 51.658279 11.504307 21.166767 1.540120 -7.795282 -1.130934 7.761599 2.138722 -32.455563 -2.274942 0.366684 -8.301035 18.992491 15.524513 14.882332 1.891390 36.282417 -4.964193 1.117081 0.544158 49.921719 -37.926933 -19.420397 -50.988663 7.919480 8.550999 8.524705 12.647240 -20.188856 10.412127 0.790339 -0.849798 -29.453190 -2.217927 -17.924397 96.882118 -9.335408 38.913544 -8.534408 -12.637552 103.919777 -23.735281 1.650342 1.468385 25.579496 -5.560914 -4.268161 -22.059113 0.124225 -2.471759 6.481884 -25.191269 -2.652790 -0.118466 5.940127 0.652752 -30.506449 -15.235893 -5.779061 
11.793835 51.655766 11.500235 21.246843 1.770461 -7.896629 -1.230824 7.476412 2.172616 -32.494423 -2.242846 0.383258 -8.228728 19.064600 15.512964 14.836170 1.748688 36.228638 -4.964193 1.117081 0.544158 50.014950 -37.856091 -19.383034 -50.998306 7.917471 8.552659 8.524705 12.647240 -20.052137 10.412127 0.790339 -0.849798 -29.443556 -2.219032 -17.945518 96.862213 -9.327958 38.902176 -8.534408 -12.637552 103.880714 -23.744402 1.464376 1.670287 25.500080 -5.556438 -4.269928 -22.193716 0.074133 -2.504013 6.247530 -25.459400 -2.600152 -0.106735 5.940862 0.683864 -30.702803 -13.627340 -5.198273 
11.798533 51.658585 11.495534 21.577505 1.904533 -8.208879 -1.528321 7.371955 2.431183 -32.513809 -2.220131 0.469523 -8.211946 19.075768 15.496340 14.686186 1.668358 36.175068 -4.964193 1.117081 0.544158 50.066364 -37.889801 -19.559725 -50.956375 7.907666 8.531881 8.524705 12.647240 -20.208384 10.412127 0.790339 -0.849798 -29.487671 -2.263119 -17.900108 96.840721 -9.321651 38.881229 -8.534408 -12.637552 103.802589 -24.159220 1.484743 1.740709 25.565624 -5.580185 -4.270391 -22.153139 0.332400 -2.410985 5.644263 -25.653147 -2.226808 -0.116466 5.940904 0.692742 -30.876383 -13.007879 -4.979249 
11.788194 51.649185 11.523421 21.344553 1.727736 -7.884119 -1.310985 7.512771 2.221236 -32.553696 -2.327934 0.408188 -8.420676 19.080326 15.415771 14.952624 1.706988 36.103664 -4.964193 1.117081 0.544158 50.073154 -37.978737 -19.777386 -50.893909 7.896273 8.511395 8.524705 12.647240 -20.413464 10.412127 0.790339 -0.849798 -29.526211 -2.258692 -17.883999 96.820992 -9.314787 38.879608 -8.534408 -12.637552 103.734238 -23.901157 1.522933 1.613003 25.609678 -5.556777 -4.289356 -22.068857 0.137763 -2.486003 6.219605 -25.393448 -2.626771 -0.106728 5.940859 0.683864 -31.553743 -11.464886 -4.541833 
11.780047 51.642609 11.531255 21.245750 1.598252 -7.753767 -1.221933 7.649177 2.113343 -32.622749 -2.411969 0.374307 -8.398550 19.134275 15.372563 15.000342 1.545807 36.016827 -4.964193 1.117081 0.544158 50.091579 -37.980259 -19.786200 -50.893909 7.896273 8.511395 8.524705 12.647240 -20.384167 10.412127 0.790339 -0.849798 -29.522448 -2.141165 -17.999971 96.759964 -9.293980 38.845680 -8.534408 -12.637552 103.773300 -23.824749 1.611411 1.624679 25.679586 -5.560355 -4.276816 -22.148373 -0.076210 -2.563119 6.463229 -25.222702 -2.723574 -0.118471 5.940127 0.652752 -32.088745 -10.148174 -4.115544 
11.780674 51.636971 11.548801 21.237511 1.586325 -7.726770 -1.242454 7.693348 2.062300 -32.545330 -2.511943 0.366103 -8.390526 19.211637 15.383671 14.912593 1.367358 36.018459 -4.964193 1.117081 0.544158 50.166256 -37.839161 -19.648848 -50.946732 7.909669 8.530223 8.524705 12.647240 -20.179090 10.412127 0.790339 -0.849798 -29.493139 -2.056063 -18.149984 96.700623 -9.271850 38.821323 -8.534408 -12.637552 103.783066 -23.803528 1.630507 1.756259 25.731201 -5.550571 -4.288804 -22.219954 -0.222356 -2.609541 6.520440 -25.187090 -2.768531 -0.117451 5.940331 0.662489 -32.065666 -10.194753 -4.136722 
11.783807 51.633522 11.571988 21.269333 1.510872 -7.683587 -1.312303 7.791981 2.065556 -32.428818 -2.610722 0.365507 -8.582821 19.191191 15.364033 14.944485 1.438657 36.034779 -4.964193 1.117081 0.544158 50.268551 -37.700356 -19.377092 -51.030602 7.929257 8.570452 8.524705 12.647240 -19.807997 10.412127 0.790339 -0.849798 -29.509876 -2.201590 -18.091040 96.740273 -9.287038 38.844048 -8.534408 -12.637552 103.744003 -23.856489 1.699642 1.759081 25.789158 -5.560698 -4.296254 -22.255196 -0.299217 -2.635216 6.569745 -25.092199 -2.813721 -0.117453 5.940331 0.662489 -31.820812 -10.761314 -4.308385 
11.780360 51.628819 11.580763 21.253210 1.474388 -7.623762 -1.293511 7.811541 2.060028 -32.429447 -2.688012 0.376869 -8.634116 19.109222 15.302388 14.824765 1.528012 35.909069 -4.964193 1.117081 0.544158 50.316132 -37.763222 -19.446398 -51.009201 7.920995 8.552092 8.524705 12.647240 -19.817762 10.412127 0.790339 -0.849798 -29.582638 -2.409487 -17.867113 96.790390 -9.304093 38.857769 -8.534408 -12.637552 103.568222 -23.857271 1.718821 1.727285 25.837242 -5.570267 -4.302640 -22.291208 -0.360691 -2.651375 6.676887 -25.032560 -2.892725 -0.117449 5.940331 0.662489 -31.819286 -10.620493 -4.249783 
11.785687 51.623810 11.589224 21.247385 1.453894 -7.547756 -1.305226 7.831409 2.061908 -32.450172 -2.825984 0.378388 -8.541092 19.136015 15.291642 14.682096 1.519360 35.852928 -4.964193 1.117081 0.544158 50.333729 -37.980717 -20.090128 -50.893909 7.896273 8.511395 8.524705 12.647240 -20.462292 10.412127 0.790339 -0.849798 -29.585289 -2.517313 -17.751091 96.801117 -9.307277 38.868233 -8.534408 -12.637552 103.343613 -23.833397 1.708681 1.795079 25.870695 -5.551100 -4.311850 -22.301685 -0.512938 -2.712447 6.757031 -25.009504 -2.971301 -0.117448 5.940332 0.662489 -31.364796 -11.477388 -4.500302 
11.790388 51.621620 11.599563 21.264677 1.501466 -7.582078 -1.385720 7.789423 2.117858 -32.460606 -2.900351 0.409590 -8.417163 19.176933 15.305484 14.665210 1.485911 35.855381 -4.964193 1.117081 0.544158 50.350967 -38.060707 -20.193872 -50.915497 7.903978 8.519977 8.524705 12.647240 -20.481825 10.412127 0.790339 -0.849798 -29.596466 -2.614329 -17.731136 96.822433 -9.313001 38.879433 -8.534408 -12.637552 103.421738 -23.805855 1.689293 1.922325 25.831079 -5.550914 -4.298590 -22.286955 -0.581071 -2.754666 6.716119 -25.040344 -2.959782 -0.116437 5.940533 0.673238 -30.354818 -13.342333 -4.922664 
